<svg xmlns="http://www.w3.org/2000/svg" viewBox="0 0 100 100">
  <rect width="100" height="100" rx="20" fill="#0a0a0a"/>
  <circle cx="50" cy="48" r="34" stroke="#FF0080" stroke-width="4" fill="none"/>
  <circle cx="50" cy="48" r="6" fill="#FACC15"/>
  <line x1="50" y1="48" x2="50" y2="14" stroke="#FF0080" stroke-width="3"/>
  <line x1="50" y1="48" x2="84" y2="48" stroke="#FF0080" stroke-width="3"/>
  <line x1="50" y1="48" x2="50" y2="82" stroke="#FF0080" stroke-width="3"/>
  <line x1="50" y1="48" x2="16" y2="48" stroke="#FF0080" stroke-width="3"/>
  <line x1="50" y1="48" x2="74" y2="24" stroke="#FF0080" stroke-width="3"/>
  <line x1="50" y1="48" x2="74" y2="72" stroke="#FF0080" stroke-width="3"/>
  <line x1="50" y1="48" x2="26" y2="24" stroke="#FF0080" stroke-width="3"/>
  <line x1="50" y1="48" x2="26" y2="72" stroke="#FF0080" stroke-width="3"/>
  <circle cx="50" cy="14" r="5" fill="#FACC15"/>
  <circle cx="84" cy="48" r="5" fill="#FACC15"/>
  <circle cx="50" cy="82" r="5" fill="#FACC15"/>
  <circle cx="16" cy="48" r="5" fill="#FACC15"/>
  <circle cx="74" cy="24" r="5" fill="#FACC15"/>
  <circle cx="74" cy="72" r="5" fill="#FACC15"/>
  <circle cx="26" cy="24" r="5" fill="#FACC15"/>
  <circle cx="26" cy="72" r="5" fill="#FACC15"/>
</svg>
